<?xml version="1.0" standalone="no"?>
<!DOCTYPE svg PUBLIC "-//W3C//DTD SVG 20010904//EN"
 "http://www.w3.org/TR/2001/REC-SVG-20010904/DTD/svg10.dtd">
<svg version="1.0" xmlns="http://www.w3.org/2000/svg"
 width="900.000000pt" height="325.000000pt" viewBox="0 0 900.000000 325.000000"
 preserveAspectRatio="xMidYMid meet">

<g transform="translate(0.000000,325.000000) scale(0.100000,-0.100000)"
fill="#000000" stroke="none">
<path d="M1013 2463 c-6 -13 -10 -1522 -4 -1600 1 -10 120 -13 560 -13 l558 0
124 162 c68 89 150 196 183 237 32 42 72 95 89 119 17 23 38 42 46 42 9 -1 28
-17 42 -38 23 -33 76 -101 259 -337 26 -33 68 -88 94 -122 29 -39 55 -63 67
-63 10 0 19 4 19 9 0 5 -51 75 -112 154 -242 311 -304 391 -321 418 l-19 29
74 97 c41 54 124 163 184 243 60 80 114 151 121 158 19 19 35 53 30 59 -16 16
-55 -24 -167 -173 -227 -302 -262 -345 -273 -341 -7 2 -67 77 -135 168 -67 90
-153 205 -190 254 -44 58 -76 91 -90 93 -12 2 -22 0 -22 -5 0 -4 92 -131 206
-281 202 -270 205 -274 189 -298 -16 -25 -156 -208 -329 -429 l-93 -120 -524
5 -524 5 0 390 0 390 483 3 c453 2 483 3 480 20 -3 16 -36 17 -486 20 l-482 2
2 358 3 357 513 3 c482 2 513 3 510 20 -3 16 -39 17 -530 20 -495 2 -528 1
-535 -15z"/>
<path d="M3575 2036 c-142 -30 -265 -125 -326 -251 -17 -36 -35 -63 -40 -58
-5 5 -10 71 -11 148 -3 117 -6 140 -18 140 -13 0 -15 -93 -15 -780 0 -687 2
-780 15 -780 13 0 16 47 20 345 3 190 9 345 13 345 5 0 14 -16 21 -35 18 -52
68 -121 124 -171 86 -78 176 -109 314 -109 225 0 381 123 464 365 26 75 28 91
28 245 -1 153 -3 171 -28 245 -46 136 -113 228 -211 290 -96 60 -236 85 -350
61z m235 -53 c132 -39 235 -151 287 -313 24 -76 27 -100 28 -225 0 -160 -11
-217 -63 -324 -57 -117 -135 -187 -265 -240 -40 -16 -203 -14 -260 4 -187 57
-298 205 -328 439 -25 193 18 377 119 511 39 52 140 129 182 140 145 37 196
38 300 8z"/>
<path d="M4762 2035 c-34 -7 -92 -27 -128 -46 -89 -45 -141 -105 -191 -224 -5
-13 -9 21 -10 95 -3 134 -8 160 -28 160 -13 0 -15 -75 -15 -586 0 -552 1 -585
18 -582 16 3 17 33 23 398 3 227 10 410 16 431 52 182 181 295 363 321 65 9
80 14 78 27 -4 21 -45 23 -126 6z"/>
<path d="M5346 2039 c-265 -44 -436 -284 -436 -610 0 -145 35 -304 81 -371 11
-14 19 -31 19 -36 0 -17 125 -127 166 -147 69 -33 107 -39 234 -39 142 1 162
4 246 45 136 66 223 181 250 332 6 34 4 39 -12 35 -10 -2 -23 -16 -28 -33 -52
-177 -140 -276 -286 -324 -85 -28 -252 -29 -325 -3 -181 67 -283 222 -302 465
l-6 77 486 0 c267 0 488 4 491 8 10 17 -13 195 -35 259 -66 198 -196 310 -399
342 -72 12 -75 12 -144 0z m147 -40 c98 -15 170 -52 243 -124 87 -86 139 -209
145 -345 l3 -55 -468 -3 -468 -2 7 57 c29 248 171 423 377 468 80 17 76 17
161 4z"/>
<path d="M6390 2036 c-83 -16 -133 -38 -186 -81 -116 -95 -129 -289 -26 -391
30 -30 139 -79 230 -103 57 -15 120 -31 162 -41 81 -20 187 -54 210 -68 45
-28 101 -86 116 -121 20 -48 18 -139 -5 -187 -57 -117 -178 -174 -372 -174
-250 0 -390 109 -416 323 -6 51 -18 66 -36 48 -28 -28 30 -223 85 -282 27 -30
112 -89 127 -89 6 0 19 -4 29 -9 39 -20 118 -31 217 -31 170 0 273 37 356 128
27 30 49 62 49 72 0 10 5 22 10 25 6 3 10 42 10 86 0 185 -74 243 -428 335
-188 48 -256 73 -298 108 -90 74 -100 219 -20 312 72 84 228 127 380 104 176
-27 273 -114 291 -263 6 -48 10 -57 27 -57 19 0 20 4 14 61 -19 169 -127 269
-319 298 -92 13 -121 13 -207 -3z"/>
<path d="M7445 2035 c-85 -15 -142 -43 -201 -97 -121 -111 -108 -319 26 -403
49 -31 151 -64 335 -110 179 -44 261 -80 309 -136 81 -96 68 -247 -30 -327
-81 -67 -165 -92 -310 -92 -109 0 -158 10 -251 53 -88 40 -156 157 -165 287
-4 54 -32 47 -36 -10 -6 -86 43 -204 110 -265 78 -70 193 -105 347 -105 118 0
182 13 264 54 178 90 222 323 85 453 -32 31 -123 77 -183 93 -16 5 -64 18
-105 29 -41 10 -102 27 -135 36 -219 59 -271 95 -296 207 -33 151 77 271 275
298 89 13 201 0 276 -32 91 -39 158 -129 169 -228 5 -46 9 -55 26 -55 18 0 20
5 16 50 -4 66 -33 141 -71 187 -40 48 -141 98 -233 114 -89 16 -132 16 -222
-1z"/>
</g>
</svg>
